<?xml version="1.0" encoding="UTF-8"?>
<svg xmlns="http://www.w3.org/2000/svg" viewBox="0 0 680 515" font-family="'Segoe UI',Arial,sans-serif">
<defs>
  <marker id="ah" viewBox="0 0 10 10" refX="10" refY="5" markerWidth="6" markerHeight="6" orient="auto"><path d="M0,0 L10,5 L0,10z" fill="#555"/></marker>
  <marker id="ahg" viewBox="0 0 10 10" refX="10" refY="5" markerWidth="6" markerHeight="6" orient="auto"><path d="M0,0 L10,5 L0,10z" fill="#1D9E75"/></marker>
</defs>

<!-- Title -->
<text x="340" y="22" text-anchor="middle" font-size="14" font-weight="bold" fill="#333">Attention U-Net (scratch)</text>
<text x="340" y="39" text-anchor="middle" font-size="12" fill="#666">37.8M параметров · 302.8 GFLOPs · mIoU 54.4% · BIoU 32.2%</text>

<!-- ═══ ENCODER (left) ═══ -->

<rect x="15" y="62" width="198" height="62" rx="6" fill="#DFF0EA" stroke="#1D9E75" stroke-width="1.5"/>
<text x="114" y="80" text-anchor="middle" font-size="9" font-weight="bold" fill="#333">EncoderBlock 1</text>
<text x="114" y="94" text-anchor="middle" font-size="8" fill="#444">ResBlock×2</text>
<text x="114" y="108" text-anchor="middle" font-size="8" fill="#444">64ch · 256×256</text>

<line x1="114" y1="124" x2="114" y2="143" stroke="#555" stroke-width="1.2" marker-end="url(#ah)"/>

<rect x="15" y="145" width="198" height="62" rx="6" fill="#DFF0EA" stroke="#1D9E75" stroke-width="1.5"/>
<text x="114" y="163" text-anchor="middle" font-size="9" font-weight="bold" fill="#333">EncoderBlock 2</text>
<text x="114" y="177" text-anchor="middle" font-size="8" fill="#444">ResBlock×2</text>
<text x="114" y="191" text-anchor="middle" font-size="8" fill="#444">128ch · 128×128</text>

<line x1="114" y1="207" x2="114" y2="226" stroke="#555" stroke-width="1.2" marker-end="url(#ah)"/>

<rect x="15" y="228" width="198" height="62" rx="6" fill="#DFF0EA" stroke="#1D9E75" stroke-width="1.5"/>
<text x="114" y="246" text-anchor="middle" font-size="9" font-weight="bold" fill="#333">EncoderBlock 3</text>
<text x="114" y="260" text-anchor="middle" font-size="8" fill="#444">ResBlock×2</text>
<text x="114" y="274" text-anchor="middle" font-size="8" fill="#444">256ch · 64×64</text>

<line x1="114" y1="290" x2="114" y2="309" stroke="#555" stroke-width="1.2" marker-end="url(#ah)"/>

<rect x="15" y="311" width="198" height="62" rx="6" fill="#DFF0EA" stroke="#1D9E75" stroke-width="1.5"/>
<text x="114" y="329" text-anchor="middle" font-size="9" font-weight="bold" fill="#333">EncoderBlock 4</text>
<text x="114" y="343" text-anchor="middle" font-size="8" fill="#444">ResBlock×2</text>
<text x="114" y="357" text-anchor="middle" font-size="8" fill="#444">512ch · 32×32</text>

<!-- ═══ BOTTLENECK + MHSA ═══ -->

<path d="M114,373 V390 H158" stroke="#555" stroke-width="1.2" fill="none" marker-end="url(#ah)"/>

<rect x="160" y="398" width="360" height="62" rx="6" fill="#ECEAF5" stroke="#534AB7" stroke-width="1.5"/>
<text x="340" y="416" text-anchor="middle" font-size="9" font-weight="bold" fill="#333">Bottleneck</text>
<text x="340" y="430" text-anchor="middle" font-size="8" fill="#444">ConvBNReLU → MHSA(8 голов) → ConvBNReLU</text>
<text x="340" y="444" text-anchor="middle" font-size="8" fill="#444">1024ch · 16×16</text>

<!-- MHSA amber badge inside bottleneck -->
<rect x="272" y="418" width="136" height="16" rx="3" fill="#FDF2DB" stroke="#EF9F27" stroke-width="1"/>
<text x="340" y="429" text-anchor="middle" font-size="7" font-weight="bold" fill="#333">MHSA · 8 голов</text>

<!-- MHSA detail box (amber) -->
<rect x="220" y="468" width="240" height="24" rx="4" fill="#FDF2DB" stroke="#EF9F27" stroke-width="1"/>
<text x="340" y="484" text-anchor="middle" font-size="8" fill="#333">MultiHeadSelfAttention · 32×32 = 1024 токена</text>

<path d="M520,398 H566 V375" stroke="#555" stroke-width="1.2" fill="none" marker-end="url(#ah)"/>

<!-- ═══ DECODER (right) ═══ -->

<rect x="467" y="311" width="198" height="62" rx="6" fill="#F8E5DD" stroke="#D85A30" stroke-width="1.5"/>
<text x="566" y="327" text-anchor="middle" font-size="9" font-weight="bold" fill="#333">AttentionDecoderBlock 4</text>
<text x="566" y="340" text-anchor="middle" font-size="7.5" fill="#444">ConvTranspose + AG + concat + Conv×2</text>
<text x="566" y="354" text-anchor="middle" font-size="8" fill="#444">512ch · 32×32</text>

<line x1="566" y1="311" x2="566" y2="292" stroke="#555" stroke-width="1.2" marker-end="url(#ah)"/>

<rect x="467" y="228" width="198" height="62" rx="6" fill="#F8E5DD" stroke="#D85A30" stroke-width="1.5"/>
<text x="566" y="244" text-anchor="middle" font-size="9" font-weight="bold" fill="#333">AttentionDecoderBlock 3</text>
<text x="566" y="257" text-anchor="middle" font-size="7.5" fill="#444">ConvTranspose + AG + concat + Conv×2</text>
<text x="566" y="271" text-anchor="middle" font-size="8" fill="#444">256ch · 64×64</text>

<line x1="566" y1="228" x2="566" y2="209" stroke="#555" stroke-width="1.2" marker-end="url(#ah)"/>

<rect x="467" y="145" width="198" height="62" rx="6" fill="#F8E5DD" stroke="#D85A30" stroke-width="1.5"/>
<text x="566" y="161" text-anchor="middle" font-size="9" font-weight="bold" fill="#333">AttentionDecoderBlock 2</text>
<text x="566" y="174" text-anchor="middle" font-size="7.5" fill="#444">ConvTranspose + AG + concat + Conv×2</text>
<text x="566" y="188" text-anchor="middle" font-size="8" fill="#444">128ch · 128×128</text>

<line x1="566" y1="145" x2="566" y2="126" stroke="#555" stroke-width="1.2" marker-end="url(#ah)"/>

<rect x="467" y="62" width="198" height="62" rx="6" fill="#F8E5DD" stroke="#D85A30" stroke-width="1.5"/>
<text x="566" y="78" text-anchor="middle" font-size="9" font-weight="bold" fill="#333">AttentionDecoderBlock 1</text>
<text x="566" y="91" text-anchor="middle" font-size="7.5" fill="#444">ConvTranspose + AG + concat + Conv×2</text>
<text x="566" y="105" text-anchor="middle" font-size="8" fill="#444">64ch · 256×256</text>

<!-- Head + Output -->
<path d="M566,62 V50 H537 V48" stroke="#555" stroke-width="1.2" fill="none" marker-end="url(#ah)"/>
<rect x="485" y="16" width="90" height="30" rx="5" fill="#DFF0EA" stroke="#1D9E75" stroke-width="1.5"/>
<text x="530" y="35" text-anchor="middle" font-size="8.5" font-weight="bold" fill="#333">Conv 1×1 → 6</text>
<line x1="575" y1="31" x2="588" y2="31" stroke="#555" stroke-width="1.2" marker-end="url(#ah)"/>
<rect x="590" y="16" width="82" height="30" rx="5" fill="#DFF0EA" stroke="#1D9E75" stroke-width="1.5"/>
<text x="631" y="35" text-anchor="middle" font-size="8.5" font-weight="bold" fill="#333">6×512×512</text>

<!-- ═══ SKIP + ATTENTION GATES ═══ -->

<!-- Skip 1 + AG -->
<line x1="213" y1="93" x2="313" y2="93" stroke="#1D9E75" stroke-width="1.2" stroke-dasharray="6,3" marker-end="url(#ahg)"/>
<rect x="315" y="82" width="50" height="22" rx="4" fill="#FDF2DB" stroke="#EF9F27" stroke-width="1.2"/>
<text x="340" y="97" text-anchor="middle" font-size="7.5" font-weight="bold" fill="#333">AG</text>
<line x1="365" y1="93" x2="467" y2="93" stroke="#1D9E75" stroke-width="1.2" stroke-dasharray="6,3" marker-end="url(#ahg)"/>

<!-- Skip 2 + AG -->
<line x1="213" y1="176" x2="313" y2="176" stroke="#1D9E75" stroke-width="1.2" stroke-dasharray="6,3" marker-end="url(#ahg)"/>
<rect x="315" y="165" width="50" height="22" rx="4" fill="#FDF2DB" stroke="#EF9F27" stroke-width="1.2"/>
<text x="340" y="180" text-anchor="middle" font-size="7.5" font-weight="bold" fill="#333">AG</text>
<line x1="365" y1="176" x2="467" y2="176" stroke="#1D9E75" stroke-width="1.2" stroke-dasharray="6,3" marker-end="url(#ahg)"/>

<!-- Skip 3 + AG -->
<line x1="213" y1="259" x2="313" y2="259" stroke="#1D9E75" stroke-width="1.2" stroke-dasharray="6,3" marker-end="url(#ahg)"/>
<rect x="315" y="248" width="50" height="22" rx="4" fill="#FDF2DB" stroke="#EF9F27" stroke-width="1.2"/>
<text x="340" y="263" text-anchor="middle" font-size="7.5" font-weight="bold" fill="#333">AG</text>
<line x1="365" y1="259" x2="467" y2="259" stroke="#1D9E75" stroke-width="1.2" stroke-dasharray="6,3" marker-end="url(#ahg)"/>

<!-- Skip 4 + AG -->
<line x1="213" y1="342" x2="313" y2="342" stroke="#1D9E75" stroke-width="1.2" stroke-dasharray="6,3" marker-end="url(#ahg)"/>
<rect x="315" y="331" width="50" height="22" rx="4" fill="#FDF2DB" stroke="#EF9F27" stroke-width="1.2"/>
<text x="340" y="346" text-anchor="middle" font-size="7.5" font-weight="bold" fill="#333">AG</text>
<line x1="365" y1="342" x2="467" y2="342" stroke="#1D9E75" stroke-width="1.2" stroke-dasharray="6,3" marker-end="url(#ahg)"/>

<!-- AG formula -->
<text x="340" y="505" text-anchor="middle" font-size="9" fill="#666" font-style="italic">α = σ(ψ(Wg·g + Wx·x))</text>

</svg>
